<svg width="93" height="93" viewBox="0 0 93 93" fill="none" xmlns="http://www.w3.org/2000/svg">
<g filter="url(#filter0_d_1279_7)">
<circle cx="46.5" cy="42.5" r="42" stroke="white"/>
<path d="M50.5801 49.1804C50.5801 54.1476 54.6068 58.1744 59.574 58.1744C64.5409 58.1744 68.5677 54.1476 68.5677 49.1804C68.5677 44.2135 64.5409 40.1868 59.574 40.1868C54.609 40.1922 50.5855 44.2157 50.5801 49.1804ZM59.574 41.9853C63.5478 41.9853 66.7691 45.2066 66.7691 49.1804C66.7691 53.1542 63.5478 56.3754 59.574 56.3754C55.6003 56.3754 52.379 53.1542 52.379 49.1804C52.3834 45.2088 55.6021 41.9897 59.574 41.9853Z" fill="white"/>
<path d="M54.4348 67.1682H64.714V68.9668H54.4348V67.1682Z" fill="white"/>
<path d="M50.5801 63.5704H68.568V65.3694H50.5801V63.5704Z" fill="white"/>
<path d="M30.7935 63.5704H32.5924V65.3694H30.7935V63.5704Z" fill="white"/>
<path d="M25.3975 65.3694H27.196V67.1683H25.3975V65.3694Z" fill="white"/>
<path d="M30.8834 58.5095C35.5796 50.3305 38.5262 41.265 39.5363 31.8879L47.9008 40.2026C48.0681 40.3692 48.2941 40.4631 48.5303 40.4642C48.5789 40.4646 48.6279 40.4606 48.6758 40.4526C48.961 40.4062 49.2063 40.2255 49.3351 39.9672C51.0306 36.583 50.3666 32.4931 47.6874 29.8194L46.952 29.0835H53.278C53.7747 29.0839 54.1779 28.6815 54.1779 28.1848C54.1782 28.0875 54.1623 27.991 54.1318 27.8992C52.9373 24.3072 49.576 21.8849 45.7905 21.8885H44.6215L49.113 17.3708C49.4635 17.0189 49.4621 16.4496 49.1101 16.0991C49.0419 16.0312 48.9635 15.9746 48.8775 15.9318C45.4919 14.2345 41.3999 14.8981 38.7243 17.5787L37.8655 18.4376C37.5854 18.7195 37.3252 19.0199 37.0857 19.337C36.8492 19.0199 36.5908 18.7195 36.3129 18.4376L35.4541 17.5787C32.7807 14.8999 28.6908 14.2363 25.3074 15.9318C24.8629 16.1539 24.6826 16.6941 24.9046 17.1383C24.9474 17.2242 25.004 17.3026 25.0719 17.3708L29.5685 21.8885H28.3879C24.6024 21.8849 21.2407 24.3072 20.0466 27.8992C19.8892 28.3702 20.1435 28.8796 20.6148 29.0371C20.7066 29.0679 20.8031 29.0835 20.9004 29.0835H27.2202L26.4848 29.8194C23.8056 32.4931 23.1416 36.583 24.8368 39.9672C24.9659 40.2255 25.2112 40.4062 25.4961 40.4526C25.5443 40.4606 25.5929 40.4646 25.6419 40.4642C25.8796 40.4642 26.1074 40.3703 26.2758 40.2026L34.0648 32.4597C33.1004 41.0782 29.8544 49.2833 24.6615 56.2287C23.4526 55.9112 22.2269 55.6612 20.9904 55.4806L20.4283 55.424L20.2484 57.2145L20.7727 57.2657C21.6721 57.3945 22.5658 57.5763 23.4547 57.782C23.2748 58.0077 23.0948 58.237 22.9087 58.4594L24.2882 59.6133C31.1998 51.3957 35.3202 41.1939 36.0542 30.4812L37.0894 29.4525L37.8644 30.2232C36.9188 41.6797 32.9864 52.6885 26.4594 62.1513L27.9325 63.1821C28.6397 62.1727 29.3142 61.1252 29.968 60.0577C34.1751 62.07 37.8898 64.9803 40.8505 68.5836L42.2416 67.444C40.491 65.3156 38.4852 63.4103 36.269 61.7718H73.964V59.9728H33.6043C32.7227 59.4405 31.8127 58.9583 30.8834 58.5095ZM48.2001 37.9621L38.6975 28.5142C41.1281 27.7886 43.7608 28.4471 45.5634 30.2319L46.4222 31.0911C48.2215 32.8871 48.9022 35.5188 48.2001 37.9621ZM51.9058 27.285H44.4589C42.7246 26.4595 40.7678 26.2258 38.888 26.6202C40.1967 24.7799 42.3149 23.6871 44.5732 23.6874H45.7873C48.3297 23.6834 50.6732 25.0615 51.9058 27.285ZM39.1343 19.7093L39.9935 18.8505C41.791 17.0508 44.4237 16.3698 46.8682 17.0722L41.5367 22.4353C39.8063 23.0721 38.3208 24.2382 37.2908 25.7676C36.8724 23.5673 37.5625 21.3018 39.1372 19.7093H39.1343ZM34.1798 18.8505L35.0386 19.7093C35.4392 20.1182 35.7868 20.5761 36.0731 21.0718C35.6656 22.0191 35.433 23.0318 35.3859 24.0615C34.5786 23.3562 33.6486 22.8054 32.6428 22.4353L27.3102 17.0722C29.7539 16.3701 32.3859 17.0512 34.1823 18.8505H34.1798ZM28.385 23.6874H29.5994C31.8591 23.6853 33.9802 24.7778 35.2904 26.6192C33.4117 26.2262 31.4556 26.4599 29.7224 27.285H22.2726C23.5048 25.0626 25.8466 23.6849 28.3879 23.6874H28.385ZM25.9783 37.9621C25.2762 35.5188 25.9572 32.8871 27.7565 31.0911L28.6154 30.2319C29.9092 28.9413 31.6639 28.2189 33.4919 28.2247C34.1664 28.2251 34.8373 28.3212 35.4849 28.5106L25.9783 37.9621Z" fill="white"/>
</g>
<defs>
<filter id="filter0_d_1279_7" x="0" y="0" width="93" height="93" filterUnits="userSpaceOnUse" color-interpolation-filters="sRGB">
<feFlood flood-opacity="0" result="BackgroundImageFix"/>
<feColorMatrix in="SourceAlpha" type="matrix" values="0 0 0 0 0 0 0 0 0 0 0 0 0 0 0 0 0 0 127 0" result="hardAlpha"/>
<feOffset dy="4"/>
<feGaussianBlur stdDeviation="2"/>
<feComposite in2="hardAlpha" operator="out"/>
<feColorMatrix type="matrix" values="0 0 0 0 0 0 0 0 0 0 0 0 0 0 0 0 0 0 0.25 0"/>
<feBlend mode="normal" in2="BackgroundImageFix" result="effect1_dropShadow_1279_7"/>
<feBlend mode="normal" in="SourceGraphic" in2="effect1_dropShadow_1279_7" result="shape"/>
</filter>
</defs>
</svg>
